<?xml version="1.0" encoding="UTF-8" standalone="no"?>
<!-- Created with Inkscape (http://www.inkscape.org/) -->

<svg
   xmlns:osb="http://www.openswatchbook.org/uri/2009/osb"
   xmlns:dc="http://purl.org/dc/elements/1.1/"
   xmlns:cc="http://creativecommons.org/ns#"
   xmlns:rdf="http://www.w3.org/1999/02/22-rdf-syntax-ns#"
   xmlns:svg="http://www.w3.org/2000/svg"
   xmlns="http://www.w3.org/2000/svg"
   xmlns:sodipodi="http://sodipodi.sourceforge.net/DTD/sodipodi-0.dtd"
   xmlns:inkscape="http://www.inkscape.org/namespaces/inkscape"
   width="210mm"
   height="297mm"
   viewBox="0 0 744.09448819 1052.3622047"
   id="svg2"
   version="1.1"
   inkscape:version="0.91 r13725"
   sodipodi:docname="copter-structuresvg.svg">
  <defs
     id="defs4">
    <linearGradient
       id="linearGradient6075"
       osb:paint="solid">
      <stop
         style="stop-color:#000000;stop-opacity:1;"
         offset="0"
         id="stop6077" />
    </linearGradient>
    <inkscape:perspective
       sodipodi:type="inkscape:persp3d"
       inkscape:vp_x="0 : 526.1811 : 1"
       inkscape:vp_y="0 : 1000 : 0"
       inkscape:vp_z="744.09449 : 526.1811 : 1"
       inkscape:persp3d-origin="372.04724 : 350.7874 : 1"
       id="perspective3511" />
  </defs>
  <sodipodi:namedview
     id="base"
     pagecolor="#ffffff"
     bordercolor="#666666"
     borderopacity="1.0"
     inkscape:pageopacity="0.0"
     inkscape:pageshadow="2"
     inkscape:zoom="1.4"
     inkscape:cx="378.63654"
     inkscape:cy="754.41789"
     inkscape:document-units="px"
     inkscape:current-layer="layer1"
     showgrid="false"
     inkscape:object-paths="true"
     showguides="false"
     inkscape:window-width="1920"
     inkscape:window-height="1016"
     inkscape:window-x="0"
     inkscape:window-y="27"
     inkscape:window-maximized="1">
    <inkscape:grid
       type="xygrid"
       id="grid3397" />
  </sodipodi:namedview>
  <metadata
     id="metadata7">
    <rdf:RDF>
      <cc:Work
         rdf:about="">
        <dc:format>image/svg+xml</dc:format>
        <dc:type
           rdf:resource="http://purl.org/dc/dcmitype/StillImage" />
        <dc:title></dc:title>
      </cc:Work>
    </rdf:RDF>
  </metadata>
  <g
     inkscape:label="Ebene 1"
     inkscape:groupmode="layer"
     id="layer1">
    <rect
       style="fill:#000000"
       id="rect3399"
       width="797.01038"
       height="583.3631"
       x="79.43441"
       y="27.096952" />
    <rect
       style="fill:#ffffff;stroke:#ffffff;stroke-opacity:1;stroke-width:0.992028;stroke-miterlimit:4.07692289;stroke-dasharray:none"
       id="rect3405"
       width="205"
       height="1.4285715"
       x="305.40506"
       y="232.59828" />
    <rect
       style="fill:#ffffff;stroke:#ffffff;stroke-opacity:1;stroke-width:0.992028;stroke-miterlimit:4.07692289;stroke-dasharray:none"
       id="rect3405-5"
       width="205"
       height="1.4285715"
       x="306.11935"
       y="303.134" />
    <rect
       style="fill:#ffffff;stroke:#ffffff;stroke-opacity:1;stroke-width:0.39681122;stroke-miterlimit:4.07692289;stroke-dasharray:none"
       id="rect3405-3"
       width="205"
       height="1.4285715"
       x="167.56258"
       y="-373.29794"
       transform="matrix(0,1,-1,0,0,0)" />
    <rect
       style="fill:#ffffff;stroke:#ffffff;stroke-opacity:1;stroke-width:0.992028;stroke-miterlimit:4.07692289;stroke-dasharray:none"
       id="rect3405-3-5"
       width="205"
       height="1.4285715"
       x="167.384"
       y="-441.33365"
       transform="matrix(0,1,-1,0,0,0)" />
    <path
       id="path3588-2"
       d="m 460.82895,172.56401 c -1.04277,-1.14048 -2.25291,-2.1138 -3.54308,-2.96011 -1.26787,-0.83134 -2.57542,-1.38318 -3.91447,-2.02857 -1.05879,-0.50135 -2.10775,-0.89504 -3.0965,-1.28253 -0.9935,-0.37328 -1.93267,-0.72623 -2.79976,-1.05191 -1.40298,-0.51662 -2.60066,-0.94824 -3.55169,-1.2882 -0.0188,-1.21279 -0.65302,-2.27438 -1.60511,-2.8887 0.19329,-0.97265 0.42943,-2.17833 0.69669,-3.59249 0.16601,-0.91122 0.34585,-1.89838 0.53604,-2.94243 0.17568,-1.04738 0.37676,-2.14954 0.49063,-3.31548 0.13443,-1.48044 0.33278,-2.88575 0.27098,-4.40049 -0.0632,-1.54172 -0.27657,-3.07995 -0.71907,-4.56062 -0.37992,-1.27081 -1.25487,-4.17931 -2.93176,-4.39467 l 0,-0.0203 c -0.0259,6.6e-4 -0.0498,0.008 -0.0753,0.0101 -0.0254,-0.002 -0.0493,-0.009 -0.0752,-0.0101 l 0,0.0203 c -1.6769,0.21536 -2.55169,3.12385 -2.93169,4.39467 -0.44258,1.48067 -0.65589,3.0189 -0.71898,4.56062 -0.0619,1.51474 0.13639,2.92005 0.27081,4.40049 0.11372,1.16594 0.3151,2.2681 0.49071,3.31548 0.19012,1.04405 0.36996,2.03121 0.53596,2.94243 0.25216,1.33406 0.4759,2.47915 0.66292,3.42263 -1.12833,0.58183 -1.90142,1.75615 -1.90142,3.11327 0,0.0219 0.003,0.043 0.003,0.0648 -0.89452,0.32046 -1.97159,0.70969 -3.21808,1.16865 -0.86694,0.32568 -1.80626,0.67863 -2.79962,1.05192 -0.98888,0.38749 -2.03785,0.78117 -3.09649,1.28253 -1.33905,0.64538 -2.64675,1.19722 -3.91447,2.02856 -1.29032,0.84631 -2.50031,1.81964 -3.54308,2.96012 -0.89505,0.97884 -2.94085,3.22374 -2.26402,4.77316 l -0.0173,0.0104 c 0.0139,0.0218 0.0325,0.0384 0.0472,0.0592 0.0115,0.0229 0.0174,0.0473 0.0299,0.0698 l 0.0174,-0.0104 c 1.04632,1.32803 3.99116,0.58426 5.27657,0.25722 1.49774,-0.38106 2.92694,-0.98829 4.28201,-1.72632 1.33142,-0.72517 2.43502,-1.61742 3.63609,-2.49335 0.94174,-0.69669 1.78405,-1.43562 2.59234,-2.12438 0.79803,-0.69956 1.55245,-1.36097 2.24899,-1.97167 1.00521,-0.89315 1.86565,-1.66722 2.57526,-2.30899 0.49116,0.26229 1.05146,0.41191 1.64713,0.41191 0.67969,0 1.312,-0.19669 1.84902,-0.53167 0.73267,0.66299 1.63965,1.47976 2.70781,2.42875 0.69639,0.6107 1.45096,1.27211 2.24898,1.97167 0.8083,0.68876 1.6506,1.42769 2.59234,2.12438 1.20108,0.87593 2.30467,1.76818 3.63595,2.49335 1.35522,0.73803 2.78442,1.34526 4.28215,1.72632 1.28541,0.32704 4.2301,1.07081 5.2765,-0.25722 l 0.0174,0.0104 c 0.0126,-0.0225 0.0186,-0.0469 0.0299,-0.0698 0.0148,-0.0207 0.0335,-0.0374 0.0474,-0.0592 l -0.0174,-0.0104 c 0.67682,-1.54942 -1.36882,-3.79432 -2.26387,-4.77316 z m -20.40606,-7.10369 c -0.80241,0 -1.4529,-0.65048 -1.4529,-1.45294 0,-0.8025 0.65049,-1.45299 1.4529,-1.45299 0.80249,0 1.45302,0.65049 1.45302,1.45299 0,0.80246 -0.65053,1.45294 -1.45302,1.45294 z"
       inkscape:connector-curvature="0"
       style="fill:none;fill-opacity:0.48627451;stroke-width:1.1;stroke-miterlimit:4.07692289;stroke-dasharray:none;stroke:#ffffff;stroke-opacity:1" />
    <path
       id="path3588-2-9"
       d="m 505.32747,253.62026 c 1.14048,-1.04277 2.11381,-2.25291 2.96012,-3.54308 0.83134,-1.26787 1.38318,-2.57542 2.02856,-3.91447 0.50136,-1.05879 0.89504,-2.10775 1.28253,-3.0965 0.37329,-0.9935 0.72624,-1.93267 1.05192,-2.79976 0.51662,-1.40298 0.94824,-2.60066 1.28819,-3.55169 1.21279,-0.0188 2.27438,-0.65302 2.8887,-1.60511 0.97266,0.19329 2.17834,0.42943 3.5925,0.69669 0.91121,0.16601 1.89837,0.34585 2.94243,0.53604 1.04738,0.17568 2.14954,0.37676 3.31548,0.49063 1.48043,0.13443 2.88575,0.33278 4.40049,0.27098 1.54171,-0.0632 3.07995,-0.27657 4.56061,-0.71907 1.27082,-0.37992 4.17931,-1.25487 4.39467,-2.93176 l 0.0203,0 c -6.5e-4,-0.0259 -0.008,-0.0498 -0.0101,-0.0753 0.002,-0.0254 0.009,-0.0493 0.0101,-0.0752 l -0.0203,0 c -0.21536,-1.6769 -3.12385,-2.55169 -4.39467,-2.93169 -1.48066,-0.44258 -3.0189,-0.65589 -4.56061,-0.71898 -1.51474,-0.0619 -2.92006,0.13639 -4.40049,0.27081 -1.16594,0.11372 -2.2681,0.3151 -3.31548,0.49071 -1.04406,0.19012 -2.03122,0.36996 -2.94243,0.53596 -1.33406,0.25216 -2.47915,0.4759 -3.42263,0.66292 -0.58184,-1.12833 -1.75616,-1.90142 -3.11327,-1.90142 -0.0219,0 -0.043,0.003 -0.0648,0.003 -0.32047,-0.89452 -0.70969,-1.97159 -1.16866,-3.21808 -0.32568,-0.86694 -0.67863,-1.80626 -1.05191,-2.79962 -0.38749,-0.98888 -0.78118,-2.03785 -1.28253,-3.09649 -0.64538,-1.33905 -1.19723,-2.64675 -2.02857,-3.91447 -0.84631,-1.29032 -1.81963,-2.50031 -2.96011,-3.54308 -0.97884,-0.89506 -3.22375,-2.94086 -4.77317,-2.26403 l -0.0104,-0.0173 c -0.0218,0.0139 -0.0384,0.0325 -0.0592,0.0472 -0.0229,0.0115 -0.0473,0.0174 -0.0698,0.0299 l 0.0104,0.0174 c -1.32802,1.04632 -0.58425,3.99117 -0.25721,5.27658 0.38106,1.49774 0.98828,2.92694 1.72631,4.28201 0.72518,1.33142 1.61743,2.43502 2.49336,3.63609 0.69669,0.94174 1.43562,1.78405 2.12438,2.59234 0.69956,0.79803 1.36097,1.55245 1.97166,2.24899 0.89316,1.00521 1.66723,1.86565 2.30899,2.57526 -0.26228,0.49116 -0.4119,1.05146 -0.4119,1.64713 0,0.67969 0.19669,1.312 0.53167,1.84902 -0.663,0.73267 -1.47976,1.63965 -2.42876,2.70781 -0.61069,0.69639 -1.2721,1.45096 -1.97166,2.24898 -0.68876,0.8083 -1.42769,1.6506 -2.12438,2.59234 -0.87593,1.20108 -1.76818,2.30467 -2.49336,3.63595 -0.73803,1.35522 -1.34525,2.78442 -1.72631,4.28215 -0.32704,1.28541 -1.07081,4.2301 0.25721,5.2765 l -0.0104,0.0174 c 0.0225,0.0126 0.0469,0.0186 0.0698,0.0299 0.0207,0.0148 0.0374,0.0335 0.0592,0.0474 l 0.0104,-0.0174 c 1.54942,0.67682 3.79433,-1.36882 4.77317,-2.26387 z m 7.10369,-20.40606 c 0,-0.80241 0.65049,-1.4529 1.45295,-1.4529 0.8025,0 1.45298,0.65049 1.45298,1.4529 0,0.80249 -0.65048,1.45302 -1.45298,1.45302 -0.80246,0 -1.45295,-0.65053 -1.45295,-1.45302 z"
       inkscape:connector-curvature="0"
       style="fill:none;fill-opacity:0.48627451;stroke:#ffffff;stroke-opacity:1;stroke-width:0.992028;stroke-miterlimit:4.07692289;stroke-dasharray:none" />
    <path
       id="path3588-2-2"
       d="m 420.18728,367.0463 c 1.04277,1.14048 2.25291,2.11381 3.54308,2.96011 1.26787,0.83135 2.57542,1.38319 3.91447,2.02857 1.05879,0.50136 2.10775,0.89504 3.0965,1.28253 0.9935,0.37328 1.93267,0.72624 2.79976,1.05192 1.40298,0.51661 2.60066,0.94824 3.55169,1.28819 0.0188,1.21279 0.65302,2.27438 1.60511,2.8887 -0.19329,0.97265 -0.42943,2.17834 -0.69669,3.5925 -0.16601,0.91121 -0.34585,1.89837 -0.53604,2.94243 -0.17568,1.04738 -0.37676,2.14954 -0.49063,3.31548 -0.13443,1.48043 -0.33278,2.88575 -0.27098,4.40049 0.0632,1.54171 0.27657,3.07995 0.71907,4.56061 0.37992,1.27081 1.25487,4.17931 2.93176,4.39467 l 0,0.0203 c 0.0259,-6.5e-4 0.0498,-0.008 0.0753,-0.0101 0.0254,0.002 0.0493,0.009 0.0752,0.0101 l 0,-0.0203 c 1.6769,-0.21536 2.55169,-3.12385 2.93169,-4.39467 0.44258,-1.48066 0.65589,-3.0189 0.71898,-4.56061 0.0619,-1.51474 -0.13639,-2.92006 -0.27081,-4.40049 -0.11372,-1.16594 -0.3151,-2.2681 -0.49071,-3.31548 -0.19012,-1.04406 -0.36996,-2.03122 -0.53596,-2.94243 -0.25216,-1.33406 -0.4759,-2.47915 -0.66292,-3.42263 1.12833,-0.58184 1.90142,-1.75616 1.90142,-3.11327 0,-0.0219 -0.003,-0.043 -0.003,-0.0648 0.89452,-0.32047 1.97159,-0.70969 3.21808,-1.16866 0.86694,-0.32568 1.80626,-0.67863 2.79962,-1.05191 0.98888,-0.38749 2.03785,-0.78118 3.09649,-1.28253 1.33905,-0.64539 2.64675,-1.19723 3.91447,-2.02857 1.29032,-0.84631 2.50031,-1.81963 3.54308,-2.96011 0.89505,-0.97884 2.94085,-3.22375 2.26402,-4.77317 l 0.0173,-0.0104 c -0.0139,-0.0218 -0.0325,-0.0384 -0.0472,-0.0592 -0.0115,-0.0229 -0.0174,-0.0473 -0.0299,-0.0698 l -0.0174,0.0104 c -1.04632,-1.32802 -3.99116,-0.58425 -5.27657,-0.25721 -1.49774,0.38106 -2.92694,0.98828 -4.28201,1.72631 -1.33142,0.72518 -2.43502,1.61743 -3.63609,2.49336 -0.94174,0.69669 -1.78405,1.43562 -2.59234,2.12438 -0.79803,0.69956 -1.55245,1.36097 -2.24899,1.97166 -1.00521,0.89316 -1.86565,1.66723 -2.57526,2.30899 -0.49116,-0.26228 -1.05146,-0.4119 -1.64713,-0.4119 -0.67969,0 -1.312,0.19669 -1.84902,0.53167 -0.73267,-0.663 -1.63965,-1.47976 -2.70781,-2.42876 -0.69639,-0.61069 -1.45096,-1.2721 -2.24898,-1.97166 -0.8083,-0.68876 -1.6506,-1.42769 -2.59234,-2.12438 -1.20108,-0.87593 -2.30467,-1.76818 -3.63595,-2.49336 -1.35522,-0.73803 -2.78442,-1.34525 -4.28215,-1.72631 -1.28541,-0.32704 -4.2301,-1.07081 -5.2765,0.25721 l -0.0174,-0.0104 c -0.0126,0.0225 -0.0186,0.0469 -0.0299,0.0698 -0.0148,0.0207 -0.0335,0.0374 -0.0474,0.0592 l 0.0174,0.0104 c -0.67682,1.54942 1.36882,3.79433 2.26387,4.77317 z m 20.40606,7.10369 c 0.80241,0 1.4529,0.65049 1.4529,1.45295 0,0.80249 -0.65049,1.45298 -1.4529,1.45298 -0.80249,0 -1.45302,-0.65049 -1.45302,-1.45298 0,-0.80246 0.65053,-1.45295 1.45302,-1.45295 z"
       inkscape:connector-curvature="0"
       style="fill:none;fill-opacity:0.48627451;stroke:#ffffff;stroke-opacity:1;stroke-width:0.992028;stroke-miterlimit:4.07692289;stroke-dasharray:none" />
    <path
       id="path3588-2-9-0"
       d="m 505.86316,324.33094 c 1.14048,-1.04277 2.11381,-2.25291 2.96012,-3.54308 0.83134,-1.26787 1.38318,-2.57542 2.02856,-3.91447 0.50136,-1.05879 0.89504,-2.10775 1.28253,-3.0965 0.37329,-0.9935 0.72624,-1.93267 1.05192,-2.79976 0.51662,-1.40298 0.94824,-2.60066 1.28819,-3.55169 1.21279,-0.0188 2.27438,-0.65302 2.8887,-1.60511 0.97266,0.19329 2.17834,0.42943 3.5925,0.69669 0.91121,0.16601 1.89837,0.34585 2.94243,0.53604 1.04738,0.17568 2.14954,0.37676 3.31548,0.49063 1.48043,0.13443 2.88575,0.33278 4.40049,0.27098 1.54171,-0.0632 3.07995,-0.27657 4.56061,-0.71907 1.27082,-0.37992 4.17931,-1.25487 4.39467,-2.93176 l 0.0203,0 c -6.5e-4,-0.0259 -0.008,-0.0498 -0.0101,-0.0753 0.002,-0.0254 0.009,-0.0493 0.0101,-0.0752 l -0.0203,0 c -0.21536,-1.6769 -3.12385,-2.55169 -4.39467,-2.93169 -1.48066,-0.44258 -3.0189,-0.65589 -4.56061,-0.71898 -1.51474,-0.0619 -2.92006,0.13639 -4.40049,0.27081 -1.16594,0.11372 -2.2681,0.3151 -3.31548,0.49071 -1.04406,0.19012 -2.03122,0.36996 -2.94243,0.53596 -1.33406,0.25216 -2.47915,0.4759 -3.42263,0.66292 -0.58184,-1.12833 -1.75616,-1.90142 -3.11327,-1.90142 -0.0219,0 -0.043,0.003 -0.0648,0.003 -0.32047,-0.89452 -0.70969,-1.97159 -1.16866,-3.21808 -0.32568,-0.86694 -0.67863,-1.80626 -1.05191,-2.79962 -0.38749,-0.98888 -0.78118,-2.03785 -1.28253,-3.09649 -0.64538,-1.33905 -1.19723,-2.64675 -2.02857,-3.91447 -0.84631,-1.29032 -1.81963,-2.50031 -2.96011,-3.54308 -0.97884,-0.89505 -3.22375,-2.94085 -4.77317,-2.26402 l -0.0104,-0.0173 c -0.0218,0.0139 -0.0384,0.0325 -0.0592,0.0472 -0.0229,0.0115 -0.0473,0.0174 -0.0698,0.0299 l 0.0104,0.0174 c -1.32802,1.04632 -0.58425,3.99116 -0.25721,5.27657 0.38106,1.49774 0.98828,2.92694 1.72631,4.28201 0.72518,1.33142 1.61743,2.43502 2.49336,3.63609 0.69669,0.94174 1.43562,1.78405 2.12438,2.59234 0.69956,0.79803 1.36097,1.55245 1.97166,2.24899 0.89316,1.00521 1.66723,1.86565 2.30899,2.57526 -0.26228,0.49116 -0.4119,1.05146 -0.4119,1.64713 0,0.67969 0.19669,1.312 0.53167,1.84902 -0.663,0.73267 -1.47976,1.63965 -2.42876,2.70781 -0.61069,0.69639 -1.2721,1.45096 -1.97166,2.24898 -0.68876,0.8083 -1.42769,1.6506 -2.12438,2.59234 -0.87593,1.20108 -1.76818,2.30467 -2.49336,3.63595 -0.73803,1.35522 -1.34525,2.78442 -1.72631,4.28215 -0.32704,1.28541 -1.07081,4.2301 0.25721,5.2765 l -0.0104,0.0174 c 0.0225,0.0126 0.0469,0.0186 0.0698,0.0299 0.0207,0.0148 0.0374,0.0335 0.0592,0.0474 l 0.0104,-0.0174 c 1.54942,0.67682 3.79433,-1.36882 4.77317,-2.26387 z m 7.10369,-20.40606 c 0,-0.80241 0.65049,-1.4529 1.45295,-1.4529 0.8025,0 1.45298,0.65049 1.45298,1.4529 0,0.80249 -0.65048,1.45302 -1.45298,1.45302 -0.80246,0 -1.45295,-0.65053 -1.45295,-1.45302 z"
       inkscape:connector-curvature="0"
       style="fill:none;fill-opacity:0.48627451;stroke:#ffffff;stroke-opacity:1;stroke-width:0.992028;stroke-miterlimit:4.07692289;stroke-dasharray:none" />
    <path
       id="path3588-2-3"
       d="m 393.09073,172.66526 c -1.04277,-1.14048 -2.25291,-2.11381 -3.54308,-2.96011 -1.26787,-0.83135 -2.57542,-1.38319 -3.91447,-2.02857 -1.05879,-0.50135 -2.10775,-0.89504 -3.0965,-1.28253 -0.9935,-0.37328 -1.93267,-0.72623 -2.79976,-1.05192 -1.40298,-0.51661 -2.60066,-0.94824 -3.55169,-1.28819 -0.0188,-1.21279 -0.65302,-2.27438 -1.60511,-2.8887 0.19329,-0.97265 0.42943,-2.17834 0.69669,-3.5925 0.16601,-0.91121 0.34585,-1.89837 0.53604,-2.94242 0.17568,-1.04739 0.37676,-2.14955 0.49063,-3.31548 0.13443,-1.48044 0.33278,-2.88576 0.27098,-4.40049 -0.0632,-1.54172 -0.27657,-3.07996 -0.71907,-4.56062 -0.37992,-1.27081 -1.25487,-4.17931 -2.93176,-4.39467 l 0,-0.0203 c -0.0259,6.5e-4 -0.0498,0.008 -0.0753,0.0101 -0.0254,-0.002 -0.0493,-0.009 -0.0752,-0.0101 l 0,0.0203 c -1.6769,0.21536 -2.55169,3.12385 -2.93169,4.39467 -0.44258,1.48066 -0.65589,3.0189 -0.71898,4.56062 -0.0619,1.51473 0.13639,2.92005 0.27081,4.40049 0.11372,1.16593 0.3151,2.26809 0.49071,3.31548 0.19012,1.04405 0.36996,2.03121 0.53596,2.94242 0.25216,1.33406 0.4759,2.47915 0.66292,3.42263 -1.12833,0.58184 -1.90142,1.75616 -1.90142,3.11327 0,0.0218 0.003,0.043 0.003,0.0648 -0.89452,0.32047 -1.97159,0.70969 -3.21808,1.16866 -0.86694,0.32568 -1.80626,0.67863 -2.79962,1.05191 -0.98888,0.38749 -2.03785,0.78118 -3.09649,1.28253 -1.33905,0.64539 -2.64675,1.19723 -3.91447,2.02857 -1.29032,0.84631 -2.50031,1.81964 -3.54308,2.96011 -0.89505,0.97884 -2.94085,3.22375 -2.26402,4.77317 l -0.0173,0.0104 c 0.0139,0.0218 0.0325,0.0384 0.0472,0.0592 0.0115,0.0229 0.0174,0.0473 0.0299,0.0698 l 0.0174,-0.0104 c 1.04632,1.32802 3.99116,0.58425 5.27657,0.25721 1.49774,-0.38106 2.92694,-0.98828 4.28201,-1.72631 1.33142,-0.72518 2.43502,-1.61743 3.63609,-2.49335 0.94174,-0.6967 1.78405,-1.43562 2.59234,-2.12439 0.79803,-0.69956 1.55245,-1.36097 2.24899,-1.97166 1.00521,-0.89315 1.86565,-1.66723 2.57526,-2.30899 0.49116,0.26228 1.05146,0.4119 1.64713,0.4119 0.67969,0 1.312,-0.19669 1.84902,-0.53166 0.73267,0.66299 1.63965,1.47975 2.70781,2.42875 0.69639,0.61069 1.45096,1.2721 2.24898,1.97166 0.8083,0.68877 1.6506,1.42769 2.59234,2.12439 1.20108,0.87592 2.30467,1.76817 3.63595,2.49335 1.35522,0.73803 2.78442,1.34525 4.28215,1.72631 1.28541,0.32704 4.2301,1.07081 5.2765,-0.25721 l 0.0174,0.0104 c 0.0126,-0.0225 0.0186,-0.0469 0.0299,-0.0698 0.0148,-0.0207 0.0335,-0.0374 0.0474,-0.0592 l -0.0174,-0.0104 c 0.67682,-1.54942 -1.36882,-3.79433 -2.26387,-4.77317 z m -20.40606,-7.10369 c -0.80241,0 -1.4529,-0.65049 -1.4529,-1.45295 0,-0.80249 0.65049,-1.45298 1.4529,-1.45298 0.80249,0 1.45302,0.65049 1.45302,1.45298 0,0.80246 -0.65053,1.45295 -1.45302,1.45295 z"
       inkscape:connector-curvature="0"
       style="fill:none;fill-opacity:0.48627451;stroke-width:1.28963625;stroke-miterlimit:4.07692289;stroke-dasharray:none;stroke:#ffffff;stroke-opacity:1" />
    <path
       id="path3588-2-9-06"
       d="m 310.50778,212.7162 c -1.14048,1.04278 -2.11381,2.25292 -2.96012,3.54309 -0.83134,1.26787 -1.38318,2.57542 -2.02856,3.91447 -0.50136,1.05879 -0.89504,2.10775 -1.28253,3.0965 -0.37329,0.9935 -0.72624,1.93267 -1.05192,2.79976 -0.51662,1.40298 -0.94824,2.60066 -1.28819,3.55169 -1.21279,0.0188 -2.27438,0.65302 -2.8887,1.60511 -0.97266,-0.19329 -2.17834,-0.42943 -3.5925,-0.69669 -0.91121,-0.16601 -1.89837,-0.34585 -2.94243,-0.53604 -1.04738,-0.17568 -2.14954,-0.37676 -3.31548,-0.49063 -1.48043,-0.13443 -2.88575,-0.33278 -4.40049,-0.27098 -1.54171,0.0632 -3.07995,0.27657 -4.56061,0.71907 -1.27082,0.37992 -4.17931,1.25487 -4.39467,2.93176 l -0.0203,0 c 6.5e-4,0.0259 0.008,0.0498 0.0101,0.0753 -0.002,0.0254 -0.009,0.0493 -0.0101,0.0752 l 0.0203,0 c 0.21536,1.6769 3.12385,2.55169 4.39467,2.93169 1.48066,0.44258 3.0189,0.65589 4.56061,0.71898 1.51474,0.0619 2.92006,-0.13639 4.40049,-0.27081 1.16594,-0.11372 2.2681,-0.3151 3.31548,-0.49071 1.04406,-0.19012 2.03122,-0.36996 2.94243,-0.53596 1.33406,-0.25216 2.47915,-0.4759 3.42263,-0.66292 0.58184,1.12833 1.75616,1.90142 3.11327,1.90142 0.0219,0 0.043,-0.003 0.0648,-0.003 0.32047,0.89452 0.70969,1.97159 1.16866,3.21808 0.32568,0.86694 0.67863,1.80626 1.05191,2.79962 0.38749,0.98888 0.78118,2.03785 1.28253,3.09649 0.64538,1.33905 1.19723,2.64675 2.02857,3.91447 0.84631,1.29032 1.81963,2.50031 2.96011,3.54308 0.97884,0.89505 3.22375,2.94085 4.77317,2.26402 l 0.0104,0.0173 c 0.0218,-0.0139 0.0384,-0.0325 0.0592,-0.0472 0.0229,-0.0115 0.0473,-0.0174 0.0698,-0.0299 l -0.0104,-0.0174 c 1.32802,-1.04632 0.58425,-3.99116 0.25721,-5.27657 -0.38106,-1.49774 -0.98828,-2.92694 -1.72631,-4.28201 -0.72518,-1.33142 -1.61743,-2.43502 -2.49336,-3.63609 -0.69669,-0.94174 -1.43562,-1.78405 -2.12438,-2.59234 -0.69956,-0.79803 -1.36097,-1.55245 -1.97166,-2.24899 -0.89316,-1.00521 -1.66723,-1.86565 -2.30899,-2.57526 0.26228,-0.49116 0.4119,-1.05146 0.4119,-1.64713 0,-0.67969 -0.19669,-1.312 -0.53167,-1.84902 0.663,-0.73267 1.47976,-1.63965 2.42876,-2.70781 0.61069,-0.69639 1.2721,-1.45096 1.97166,-2.24898 0.68876,-0.8083 1.42769,-1.6506 2.12438,-2.59234 0.87593,-1.20108 1.76818,-2.30467 2.49336,-3.63595 0.73803,-1.35522 1.34525,-2.78442 1.72631,-4.28215 0.32704,-1.28541 1.07081,-4.23011 -0.25721,-5.27651 l 0.0104,-0.0174 c -0.0225,-0.0126 -0.0469,-0.0186 -0.0698,-0.0299 -0.0207,-0.0148 -0.0374,-0.0335 -0.0592,-0.0474 l -0.0104,0.0174 c -1.54942,-0.67682 -3.79433,1.36882 -4.77317,2.26387 z m -7.10369,20.40607 c 0,0.80241 -0.65049,1.4529 -1.45295,1.4529 -0.8025,0 -1.45298,-0.65049 -1.45298,-1.4529 0,-0.80249 0.65048,-1.45302 1.45298,-1.45302 0.80246,0 1.45295,0.65053 1.45295,1.45302 z"
       inkscape:connector-curvature="0"
       style="fill:none;fill-opacity:0.556;stroke:#ffffff;stroke-opacity:1;stroke-width:0.992028;stroke-miterlimit:4.07692289;stroke-dasharray:none" />
    <path
       id="path3588-2-9-06-2"
       d="m 311.40064,283.25192 c -1.14048,1.04277 -2.11381,2.25291 -2.96012,3.54308 -0.83134,1.26787 -1.38318,2.57542 -2.02856,3.91447 -0.50136,1.05879 -0.89504,2.10775 -1.28253,3.0965 -0.37329,0.9935 -0.72624,1.93267 -1.05192,2.79976 -0.51662,1.40298 -0.94824,2.60066 -1.28819,3.55169 -1.21279,0.0188 -2.27438,0.65302 -2.8887,1.60511 -0.97266,-0.19329 -2.17834,-0.42943 -3.5925,-0.69669 -0.91121,-0.16601 -1.89837,-0.34585 -2.94243,-0.53604 -1.04739,-0.17568 -2.14955,-0.37676 -3.31549,-0.49063 -1.48043,-0.13443 -2.88575,-0.33278 -4.40049,-0.27098 -1.54171,0.0632 -3.07995,0.27657 -4.56061,0.71907 -1.27082,0.37992 -4.17931,1.25487 -4.39467,2.93176 l -0.0203,0 c 6.5e-4,0.0259 0.008,0.0498 0.0101,0.0753 -0.002,0.0254 -0.009,0.0493 -0.0101,0.0752 l 0.0203,0 c 0.21536,1.6769 3.12385,2.55169 4.39467,2.93169 1.48066,0.44258 3.0189,0.65589 4.56061,0.71898 1.51474,0.0619 2.92006,-0.13639 4.40049,-0.27081 1.16594,-0.11372 2.2681,-0.3151 3.31549,-0.49071 1.04406,-0.19012 2.03122,-0.36996 2.94243,-0.53596 1.33406,-0.25216 2.47915,-0.4759 3.42263,-0.66292 0.58184,1.12833 1.75616,1.90142 3.11327,1.90142 0.0219,0 0.043,-0.003 0.0648,-0.003 0.32047,0.89452 0.70969,1.97159 1.16866,3.21808 0.32568,0.86694 0.67863,1.80626 1.05191,2.79962 0.38749,0.98888 0.78118,2.03785 1.28253,3.09649 0.64538,1.33905 1.19723,2.64675 2.02857,3.91447 0.84631,1.29032 1.81963,2.50031 2.96011,3.54308 0.97884,0.89505 3.22375,2.94085 4.77317,2.26402 l 0.0104,0.0173 c 0.0218,-0.0139 0.0384,-0.0325 0.0592,-0.0472 0.0229,-0.0115 0.0473,-0.0174 0.0698,-0.0299 l -0.0104,-0.0174 c 1.32802,-1.04632 0.58425,-3.99116 0.25721,-5.27657 -0.38106,-1.49774 -0.98828,-2.92694 -1.72631,-4.28201 -0.72518,-1.33142 -1.61743,-2.43502 -2.49336,-3.63609 -0.69669,-0.94174 -1.43562,-1.78405 -2.12438,-2.59234 -0.69956,-0.79803 -1.36097,-1.55245 -1.97166,-2.24899 -0.89316,-1.00521 -1.66723,-1.86565 -2.30899,-2.57526 0.26228,-0.49116 0.4119,-1.05146 0.4119,-1.64713 0,-0.67969 -0.19669,-1.312 -0.53167,-1.84902 0.663,-0.73267 1.47976,-1.63965 2.42876,-2.70781 0.61069,-0.69639 1.2721,-1.45096 1.97166,-2.24898 0.68876,-0.8083 1.42769,-1.6506 2.12438,-2.59234 0.87593,-1.20108 1.76818,-2.30467 2.49336,-3.63595 0.73803,-1.35522 1.34525,-2.78442 1.72631,-4.28215 0.32704,-1.28541 1.07081,-4.2301 -0.25721,-5.2765 l 0.0104,-0.0174 c -0.0225,-0.0126 -0.0469,-0.0186 -0.0698,-0.0299 -0.0207,-0.0148 -0.0374,-0.0335 -0.0592,-0.0474 l -0.0104,0.0174 c -1.54942,-0.67682 -3.79433,1.36882 -4.77317,2.26387 z m -7.10369,20.40606 c 0,0.80241 -0.65049,1.4529 -1.45295,1.4529 -0.8025,0 -1.45298,-0.65049 -1.45298,-1.4529 0,-0.80249 0.65048,-1.45302 1.45298,-1.45302 0.80246,0 1.45295,0.65053 1.45295,1.45302 z"
       inkscape:connector-curvature="0"
       style="fill:none;fill-opacity:0.48627451;stroke:#ffffff;stroke-opacity:1;stroke-width:0.992028;stroke-miterlimit:4.07692289;stroke-dasharray:none" />
    <path
       id="path3588-2-2-6"
       d="m 351.8087,367.35272 c 1.04277,1.14048 2.25291,2.11381 3.54308,2.96011 1.26787,0.83135 2.57542,1.38319 3.91447,2.02857 1.05879,0.50136 2.10775,0.89504 3.0965,1.28253 0.9935,0.37328 1.93267,0.72624 2.79976,1.05192 1.40298,0.51661 2.60066,0.94824 3.55169,1.28819 0.0188,1.21279 0.65302,2.27438 1.60511,2.8887 -0.19329,0.97265 -0.42943,2.17834 -0.69669,3.5925 -0.16601,0.91121 -0.34585,1.89837 -0.53604,2.94243 -0.17568,1.04738 -0.37676,2.14954 -0.49063,3.31548 -0.13443,1.48043 -0.33278,2.88575 -0.27098,4.40049 0.0632,1.54171 0.27657,3.07995 0.71907,4.56061 0.37992,1.27081 1.25487,4.17931 2.93176,4.39467 l 0,0.0203 c 0.0259,-6.5e-4 0.0498,-0.008 0.0753,-0.0101 0.0254,0.002 0.0493,0.009 0.0752,0.0101 l 0,-0.0203 c 1.6769,-0.21536 2.55169,-3.12385 2.93169,-4.39467 0.44258,-1.48066 0.65589,-3.0189 0.71898,-4.56061 0.0619,-1.51474 -0.13639,-2.92006 -0.27081,-4.40049 -0.11372,-1.16594 -0.3151,-2.2681 -0.49071,-3.31548 -0.19012,-1.04406 -0.36996,-2.03122 -0.53596,-2.94243 -0.25216,-1.33406 -0.4759,-2.47915 -0.66292,-3.42263 1.12833,-0.58184 1.90142,-1.75616 1.90142,-3.11327 0,-0.0219 -0.003,-0.043 -0.003,-0.0648 0.89452,-0.32047 1.97159,-0.70969 3.21808,-1.16866 0.86694,-0.32568 1.80626,-0.67863 2.79962,-1.05191 0.98888,-0.38749 2.03785,-0.78118 3.09649,-1.28253 1.33905,-0.64539 2.64675,-1.19723 3.91447,-2.02857 1.29032,-0.84631 2.50031,-1.81963 3.54308,-2.96011 0.89505,-0.97884 2.94085,-3.22375 2.26402,-4.77317 l 0.0173,-0.0104 c -0.0139,-0.0218 -0.0325,-0.0384 -0.0472,-0.0592 -0.0115,-0.0229 -0.0174,-0.0473 -0.0299,-0.0698 l -0.0174,0.0104 c -1.04632,-1.32802 -3.99116,-0.58425 -5.27657,-0.25721 -1.49774,0.38106 -2.92694,0.98828 -4.28201,1.72631 -1.33142,0.72518 -2.43502,1.61743 -3.63609,2.49336 -0.94174,0.69669 -1.78405,1.43562 -2.59234,2.12438 -0.79803,0.69956 -1.55245,1.36097 -2.24899,1.97166 -1.00521,0.89316 -1.86565,1.66723 -2.57526,2.30899 -0.49116,-0.26228 -1.05146,-0.4119 -1.64713,-0.4119 -0.67969,0 -1.312,0.19669 -1.84902,0.53167 -0.73267,-0.663 -1.63965,-1.47976 -2.70781,-2.42876 -0.69639,-0.61069 -1.45096,-1.2721 -2.24898,-1.97166 -0.8083,-0.68876 -1.6506,-1.42769 -2.59234,-2.12438 -1.20108,-0.87593 -2.30467,-1.76818 -3.63595,-2.49336 -1.35522,-0.73803 -2.78442,-1.34525 -4.28215,-1.72631 -1.28541,-0.32704 -4.2301,-1.07081 -5.2765,0.25721 l -0.0174,-0.0104 c -0.0126,0.0225 -0.0186,0.0469 -0.0299,0.0698 -0.0148,0.0207 -0.0335,0.0374 -0.0474,0.0592 l 0.0174,0.0104 c -0.67682,1.54942 1.36882,3.79433 2.26387,4.77317 z m 20.40606,7.10369 c 0.80241,0 1.4529,0.65049 1.4529,1.45295 0,0.80249 -0.65049,1.45298 -1.4529,1.45298 -0.80249,0 -1.45302,-0.65049 -1.45302,-1.45298 0,-0.80246 0.65053,-1.45295 1.45302,-1.45295 z"
       inkscape:connector-curvature="0"
       style="fill:none;fill-opacity:0.48627451;stroke:#ffffff;stroke-opacity:1;stroke-width:0.992028;stroke-miterlimit:4.07692289;stroke-dasharray:none" />
    <rect
       style="fill:none;fill-opacity:1;stroke:#ffffff;stroke-width:1.10000002;stroke-linecap:round;stroke-linejoin:round;stroke-miterlimit:4.07692289;stroke-dasharray:none;stroke-opacity:1"
       id="rect6092"
       width="51.785713"
       height="5"
       x="347.17856"
       y="196.46935" />
    <rect
       style="fill:none;fill-opacity:1;stroke:#ffffff;stroke-width:1.10000002;stroke-linecap:round;stroke-linejoin:round;stroke-miterlimit:4.07692289;stroke-dasharray:none;stroke-opacity:1"
       id="rect6092-1"
       width="51.785713"
       height="5"
       x="414.10712"
       y="196.64792" />
  </g>
</svg>
